<svg width="261" height="173" viewBox="0 0 261 173" fill="none" xmlns="http://www.w3.org/2000/svg">
<g clip-path="url(#clip0_3521_18589)">
<path fill-rule="evenodd" clip-rule="evenodd" d="M0 0H260.27L260.55 81.11C229.13 69.16 129.16 40.56 0 76.2V0Z" fill="#2C328C"/>
<path fill-rule="evenodd" clip-rule="evenodd" d="M0 172.05H260.27V107.16C213.33 91.45 129.89 67.91 0 101.26V172.05Z" fill="#FFF200"/>
<path fill-rule="evenodd" clip-rule="evenodd" d="M260.27 107.16C213.33 91.45 129.89 67.91 0 101.26V76.1999C129.16 40.5599 229.13 69.2 260.55 81.11L260.27 107.16Z" fill="#ED1C24"/>
<path fill-rule="evenodd" clip-rule="evenodd" d="M82.91 60.92C89.35 43.12 104.09 27.75 129.7 27.92C155.31 28.09 172.39 42.72 177 61.86C144 58.43 122 57.83 82.91 60.92Z" fill="#FFF200"/>
<path d="M58.15 139.18L75.58 113.18H82L100.57 139.18H93.77L88.48 131.31H69.48L64.48 139.18H58.15ZM71.24 128.51H86.63L81.89 121.32C80.7165 119.587 79.6447 117.787 78.68 115.93C78.0647 117.688 77.2423 119.367 76.23 120.93L71.23 128.54L71.24 128.51ZM131.1 139.18V136.42C128.533 138.547 125.053 139.61 120.66 139.61C118.831 139.624 117.007 139.413 115.23 138.98C113.888 138.705 112.616 138.161 111.49 137.38C110.7 136.777 110.103 135.957 109.77 135.02C109.5 134.044 109.386 133.032 109.43 132.02V120.37H115V130.8C114.939 131.934 115.053 133.071 115.34 134.17C115.789 135.106 116.591 135.825 117.57 136.17C118.916 136.682 120.35 136.923 121.79 136.88C123.386 136.893 124.973 136.646 126.49 136.15C127.711 135.827 128.8 135.127 129.6 134.15C130.282 133.049 130.604 131.763 130.52 130.47V120.37H136.09V139.18H131.1ZM149.6 139.18V120.37H154.6V123.22C155.584 122.1 156.794 121.2 158.15 120.58C159.289 120.144 160.5 119.927 161.72 119.94C163.673 119.945 165.611 120.283 167.45 120.94L165.53 123.94C164.219 123.481 162.84 123.244 161.45 123.24C160.322 123.222 159.202 123.437 158.16 123.87C157.293 124.204 156.563 124.82 156.09 125.62C155.465 126.76 155.145 128.041 155.16 129.34V139.19L149.6 139.18ZM197.07 136.86C195.161 137.804 193.147 138.519 191.07 138.99C189.048 139.414 186.986 139.621 184.92 139.61C181.31 139.61 178.54 139.11 176.59 138.1C174.64 137.09 173.68 135.8 173.68 134.23C173.685 133.756 173.784 133.288 173.973 132.853C174.162 132.419 174.437 132.027 174.78 131.7C175.591 130.886 176.57 130.262 177.65 129.87C178.945 129.398 180.285 129.063 181.65 128.87C182.74 128.71 184.39 128.54 186.59 128.39C189.922 128.219 193.241 127.852 196.53 127.29C196.53 126.85 196.53 126.58 196.53 126.46C196.572 125.898 196.444 125.335 196.162 124.847C195.88 124.358 195.458 123.965 194.95 123.72C192.945 122.887 190.778 122.518 188.61 122.64C186.641 122.543 184.671 122.811 182.8 123.43C181.547 123.962 180.553 124.963 180.03 126.22L174.59 125.79C175.059 124.492 175.91 123.366 177.03 122.56C178.521 121.594 180.196 120.947 181.95 120.66C184.408 120.19 186.908 119.969 189.41 120C191.704 119.956 193.995 120.147 196.25 120.57C197.621 120.803 198.936 121.288 200.13 122C200.915 122.529 201.519 123.287 201.86 124.17C202.086 125.133 202.176 126.122 202.13 127.11V131.36C202.042 133.241 202.162 135.126 202.49 136.98C202.77 137.837 203.254 138.612 203.9 139.24H198.08C197.505 138.583 197.121 137.78 196.97 136.92L197.07 136.86ZM196.6 129.74C193.598 130.351 190.557 130.755 187.5 130.95C185.867 131.044 184.243 131.255 182.64 131.58C181.837 131.731 181.082 132.074 180.44 132.58C180.207 132.759 180.016 132.987 179.882 133.248C179.747 133.509 179.671 133.797 179.66 134.09C179.66 134.94 180.23 135.65 181.35 136.22C182.91 136.867 184.594 137.157 186.28 137.07C188.22 137.103 190.153 136.833 192.01 136.27C193.422 135.892 194.7 135.126 195.7 134.06C196.365 133.135 196.683 132.006 196.6 130.87V129.74Z" fill="#2C328C" stroke="#2C328C" stroke-width="0.22" stroke-miterlimit="22.93"/>
</g>
<defs>
<clipPath id="clip0_3521_18589">
<rect width="260.55" height="172.05" fill="white"/>
</clipPath>
</defs>
</svg>
