<svg width="512" height="512" viewBox="0 0 512 512" fill="none" xmlns="http://www.w3.org/2000/svg">
<g clip-path="url(#clip0_3520_18562)">
<path d="M513 434.53C511.653 435.606 510.56 436.517 510.081 437.528C503.724 450.938 492.759 456.969 478.298 456.979C407.174 457.027 336.049 456.989 264.461 456.901C263.766 456.586 263.533 456.351 263.023 455.706C261.699 453.47 261.788 451.442 261.785 449.459C261.73 413.379 261.722 377.299 261.782 341.218C261.784 339.555 261.879 337.894 262.26 335.77C262.705 334.703 263.074 334.164 263.883 333.367C266.309 331.616 268.702 331.849 271.004 331.838C286.979 331.759 302.955 331.872 318.929 331.758C323.621 331.725 327.152 333.363 330.402 336.651C343.503 349.906 356.844 362.926 369.833 376.288C373.755 380.322 377.934 381.9 383.5 381.877C422.938 381.717 462.377 381.776 501.816 381.819C505.33 381.823 508.759 381.456 512.582 380.836C513 398.687 513 416.374 513 434.53Z" fill="#FFB42E"/>
<path d="M263.673 57.5052C273.347 57.1004 282.671 57.0041 291.996 57.002C354.292 56.9884 416.588 57.0628 478.884 56.9444C493.419 56.9168 507.117 65.9551 511.128 79.2712C511.293 79.8182 511.991 80.2043 512.721 80.3328C513 98.021 513 116.042 513 134.532C506.484 131.184 499.3 132.23 492.285 132.223C456.798 132.188 421.308 132.397 385.824 132.053C378.353 131.981 373.013 134.193 367.896 139.585C355.86 152.27 343.183 164.347 330.941 176.842C327.31 180.548 323.405 182.333 318.153 182.268C302.661 182.077 287.165 182.231 271.67 182.175C269.517 182.168 267.327 182.307 264.83 181.264C263.876 180.662 263.41 180.214 262.745 179.278C261.593 176.447 261.781 173.924 261.778 171.441C261.726 136.298 261.74 101.155 261.766 66.0118C261.768 63.8542 261.651 61.6739 262.544 59.1231C262.948 58.4036 263.135 58.1305 263.673 57.5052Z" fill="#FFB42E"/>
<path d="M250.337 456.523C234.517 456.903 219.023 456.989 203.529 456.993C147.54 457.01 91.5508 457 35.5618 457C20.9582 457 10.2538 450.72 3.792 437.439C3.26032 436.346 2.98506 434.844 1.26341 434.667C1 416.979 1 398.958 1 380.468C10.2235 382.895 19.7217 381.694 29.1074 381.728C62.9358 381.847 96.7657 381.661 130.593 381.878C136.929 381.918 141.618 379.976 146.014 375.432C158.525 362.498 171.465 349.98 184.069 337.134C187.705 333.428 191.61 331.652 196.861 331.718C212.522 331.916 228.189 331.675 243.853 331.847C250.565 331.921 252.132 333.46 252.156 340.185C252.288 376.846 252.241 413.508 252.184 450.17C252.181 451.661 252.21 453.177 251.404 455.02C251.027 455.692 250.845 455.942 250.337 456.523Z" fill="#FFC738"/>
<path d="M1 79.4687C3.43791 80.1861 3.12897 77.6413 3.53805 76.808C10.319 62.9944 21.5083 56.9373 36.6839 56.9586C107.476 57.0576 178.269 57.012 249.525 57.0877C250.22 57.3923 250.453 57.6273 250.964 58.2719C252.296 60.5038 252.212 62.5321 252.215 64.5158C252.27 100.602 252.277 136.689 252.219 172.775C252.216 174.439 252.121 176.1 251.741 178.225C251.298 179.291 250.93 179.83 250.123 180.627C247.699 182.383 245.304 182.149 243 182.161C227.349 182.24 211.697 182.125 196.048 182.24C191.348 182.275 187.827 180.611 184.576 177.325C171.343 163.952 157.938 150.748 144.741 137.34C141.215 133.758 137.399 132.14 132.364 132.152C91.9041 132.25 51.444 132.23 10.9842 132.164C7.71488 132.159 4.78211 132.969 1.43566 134.107C1 115.979 1 97.9582 1 79.4687Z" fill="#FFC738"/>
<path d="M1.36287 250.343C1 214.645 1 179.291 1 143.468C1.22814 142.796 1.45627 142.592 2.05631 142.12C4.40514 140.721 6.5931 140.808 8.74873 140.807C48.5189 140.779 88.2892 140.833 128.059 140.731C133.274 140.718 137.207 142.334 140.855 146.065C152.837 158.317 164.981 170.414 177.199 182.433C180.629 185.808 182.31 189.442 182.263 194.33C182.106 210.469 182.239 226.611 182.176 242.752C182.168 244.739 182.255 246.755 181.306 249.106C180.7 250.087 180.246 250.565 179.295 251.246C175.963 252.505 172.944 252.232 169.969 252.234C116.922 252.268 63.875 252.277 10.8284 252.21C7.76069 252.206 4.45316 252.992 1.36287 250.343Z" fill="#FFC738"/>
<path d="M1.33844 370.307C1 334.979 1 299.958 1 264.468C3.24071 261.239 6.41907 261.797 9.34531 261.785C30 261.699 50.655 261.746 71.3099 261.744C103.458 261.74 135.607 261.738 167.755 261.747C171.085 261.748 174.42 261.668 178.217 262.255C179.301 262.705 179.848 263.081 180.658 263.908C182.392 266.354 182.155 268.751 182.166 271.056C182.246 287.053 182.145 303.051 182.24 319.048C182.267 323.536 180.82 326.993 177.614 330.128C165.111 342.355 152.798 354.778 141.016 367.707C137.38 371.696 133.118 373.27 127.734 373.256C93.239 373.162 58.7438 373.27 24.2491 373.15C18.1016 373.128 12.0015 371.871 5.82191 372.091C4.28084 372.145 2.87526 371.621 1.33844 370.307Z" fill="#FFC738"/>
<path d="M512.652 143.668C513 179.021 513 214.042 513 249.532C511.224 252.303 508.649 252.173 506.157 252.193C495.163 252.282 484.169 252.229 473.175 252.23C430.03 252.234 386.885 252.248 343.741 252.222C332.324 252.215 331.792 251.683 331.778 240.451C331.76 225.293 331.82 210.133 331.743 194.975C331.721 190.5 333.144 187.048 336.337 183.896C349.019 171.373 361.577 158.722 374.174 146.113C376.748 143.538 379.482 141.818 383.333 141.811C424.811 141.734 466.29 141.715 507.768 141.854C508.766 141.857 509.764 141.963 511.156 142.473C511.821 142.912 512.062 143.123 512.652 143.668Z" fill="#FFB42E"/>
<path d="M512.655 263.672C513 299.021 513 334.042 513 369.532C512.768 370.221 512.535 370.442 511.941 370.98C509.42 372.51 507.036 372.199 504.734 372.202C465.42 372.247 426.105 372.163 386.792 372.308C381.047 372.329 376.705 370.686 372.665 366.512C360.849 354.305 348.759 342.36 336.656 330.435C333.359 327.187 331.696 323.695 331.732 318.984C331.856 302.827 331.694 286.667 331.824 270.509C331.881 263.357 333.289 261.854 340.286 261.838C395.592 261.711 450.898 261.747 506.204 261.823C508.323 261.826 510.599 261.546 512.655 263.672Z" fill="#FFB42E"/>
<path d="M513 263.535C455.344 263.998 397.688 264.053 340.033 263.89C335.244 263.877 333.802 265.13 333.887 269.984C334.178 286.642 334.062 303.309 333.942 319.972C333.92 323.046 334.826 325.274 337.022 327.442C350.184 340.437 363.286 353.494 376.242 366.694C378.815 369.315 381.47 370.224 385.057 370.218C427.049 370.141 469.041 370.199 511.497 370.254C512.169 370.355 512.376 370.425 512.792 370.748C513 374.031 513 377.061 513 380.546C511.869 383.628 509.839 384.202 507.087 384.197C464.601 384.119 422.114 384.112 379.628 384.196C376.02 384.204 373.348 383.098 370.81 380.531C356.634 366.197 342.273 352.046 328.108 337.702C325.588 335.15 323.072 333.925 319.392 333.966C301.567 334.165 283.738 334.085 265.443 334.145C264.813 334.294 264.651 334.403 264.318 334.746C264.096 370.177 264.046 405.373 263.994 440.569C263.987 445.384 263.969 450.198 263.923 455.477C261.726 457.031 259.451 456.359 256.809 456.088C254.669 454.096 254.808 451.855 254.803 449.717C254.705 408.636 254.713 367.555 254.797 326.475C254.801 324.49 254.751 322.463 256.041 320.216C258.545 317.486 261.49 317.812 264.283 317.794C279.444 317.693 294.606 317.803 309.767 317.73C316.989 317.695 317.724 316.959 317.732 309.614C317.77 274.626 317.767 239.638 317.734 204.65C317.727 196.97 317.058 196.298 309.521 196.267C294.859 196.208 280.197 196.289 265.536 196.22C262.733 196.206 259.839 196.554 256.859 194.695C254.755 192.289 254.793 189.754 254.788 187.263C254.711 146.492 254.72 105.722 254.791 64.9512C254.795 62.9771 254.633 60.9335 256.023 58.7205C258.416 56.8837 260.76 57.6826 263.418 57.8243C263.888 92.6029 263.939 127.127 263.993 161.651C264.002 167.129 264.03 172.606 264.097 178.551C264.259 179.176 264.375 179.332 264.732 179.652C283.631 179.86 302.288 179.853 320.944 180.006C323.777 180.03 325.57 178.749 327.398 176.914C341.747 162.52 356.19 148.22 370.482 133.77C373.119 131.103 375.836 129.783 379.673 129.793C421.987 129.897 464.302 129.891 506.616 129.797C510.131 129.789 512.472 130.418 512.731 134.722C513 137.371 513 139.741 513 142.556C512.861 143.169 512.722 143.337 512.271 143.607C470.143 143.755 428.327 143.873 386.511 143.746C381.792 143.731 378.451 145.038 375.151 148.437C362.735 161.225 350.071 173.776 337.363 186.277C334.903 188.698 333.915 191.188 333.945 194.618C334.091 211.111 334.206 227.609 333.892 244.096C333.797 249.082 335.455 250.117 340.129 250.104C397.44 249.954 454.751 250.007 512.531 250.004C513 254.357 513 258.714 513 263.535Z" fill="#AF5A35"/>
<path d="M256.78 319.951C256.993 365.262 257.001 410.138 257.015 455.48C255.082 456.988 253.011 456.356 250.649 456.149C250.234 435.898 250.139 415.921 250.102 395.944C250.068 377.129 249.961 358.313 250.192 339.501C250.247 335.04 248.853 333.846 244.507 333.907C228.026 334.14 211.54 334.077 195.057 333.936C191.784 333.908 189.46 334.939 187.182 337.244C173.137 351.454 158.909 365.484 144.885 379.714C141.86 382.784 138.66 384.155 134.311 384.143C92.1865 384.027 50.0614 384.074 7.93645 384.073C5.15432 384.073 1.99867 384.733 1.27705 380.262C1 380 1 379.5 1 379.25C1.99692 376.919 1.31814 374.725 1.21798 372.292C1 371.555 1 371.111 1 370.333C17.7925 370.268 34.5842 370.685 51.3776 370.769C77.337 370.9 103.298 370.759 129.257 370.855C132.837 370.868 135.571 369.866 138.103 367.26C151.082 353.905 164.165 340.652 177.296 327.447C179.211 325.522 180.005 323.513 179.991 320.822C179.895 302.518 179.914 284.213 179.859 265.439C179.698 264.797 179.574 264.624 179.224 264.223C138.599 263.954 98.1984 263.902 57.7979 263.875C39.1767 263.862 20.5554 263.899 1.4671 263.957C1 259.643 1 255.286 1 250.465C60.0287 249.976 119.057 249.952 178.554 249.885C179.179 249.73 179.335 249.619 179.652 249.268C179.858 230.041 179.868 211.053 179.992 192.066C180.009 189.506 179.094 187.687 177.329 185.934C163.975 172.669 150.626 159.398 137.431 145.976C135.035 143.538 132.455 143.128 129.35 143.131C87.2082 143.166 45.0662 143.139 2.45595 143.088C0.992382 140.994 1.76556 138.79 1.22504 136.339C1 135.556 1 135.111 1 134.333C2.0859 130.816 4.14081 129.77 7.63427 129.781C49.9049 129.918 92.1761 129.908 134.447 129.811C138.591 129.802 141.719 131.107 144.611 134.031C158.652 148.231 172.864 162.264 186.897 176.472C189.286 178.89 191.695 180.056 195.17 180.022C212.809 179.85 230.45 179.914 248.559 179.859C249.194 179.706 249.36 179.59 249.722 179.242C249.964 143.493 250.006 107.975 250.055 72.4566C250.061 67.9755 250.097 63.4944 250.163 58.5525C251.901 56.8861 253.82 57.77 256.328 57.7905C257.028 102.923 257.015 147.774 256.997 193.063C256.879 193.799 256.766 194.098 256.321 194.742C253.582 196.695 250.837 196.192 248.224 196.208C233.413 196.296 218.601 196.193 203.789 196.272C197.123 196.308 196.283 197.125 196.273 203.784C196.22 239.232 196.222 274.681 196.272 310.129C196.282 316.968 197.084 317.704 204.205 317.734C218.517 317.794 232.83 317.73 247.142 317.77C249.794 317.778 252.474 317.562 255.484 318.591C256.12 319.067 256.348 319.292 256.78 319.951Z" fill="#C66D4E"/>
<path d="M1 372.438C2.3891 374.05 2.23586 376.215 1.23882 378.713C1 376.958 1 374.917 1 372.438Z" fill="#D98B47"/>
<path d="M1 136.438C2.57839 137.871 1.81374 140.117 1.99127 142.63C1.98773 143.05 1.49148 143.072 1.24574 143.036C1 140.958 1 138.917 1 136.438Z" fill="#CF7A4B"/>
<path d="M263.891 57.8488C261.855 58.061 259.873 58.0435 257.467 58.0487C257.041 58.0716 257 58.0127 256.981 57.9829C256.761 57.8145 256.561 57.6759 256.674 57.35C259.042 57.1161 261.097 57.0696 263.588 57.0881C264.023 57.1531 263.945 57.6191 263.891 57.8488Z" fill="#CC783A"/>
<path d="M256.553 57.092C256.987 57.1626 256.98 57.5586 256.97 57.7559C254.987 57.9852 253.013 58.0172 250.623 58.0705C250.207 58.0917 250.075 57.6296 250.032 57.3935C252.032 57.112 254.076 57.0667 256.553 57.092Z" fill="#D98B47"/>
<path d="M250.219 456.117C252.257 455.907 254.212 455.938 256.593 455.957C259.026 455.963 261.032 455.981 263.464 455.97C263.89 455.941 263.968 456.378 263.983 456.6C259.641 456.88 255.283 456.94 250.468 456.927C250.052 456.689 250.094 456.524 250.219 456.117Z" fill="#D98B47"/>
<path d="M264.302 334.867C264.153 334.668 264.29 334.432 264.766 334.229C264.828 334.399 264.656 334.588 264.302 334.867Z" fill="#F6A931"/>
<path d="M264.855 179.663C264.66 179.825 264.419 179.697 264.199 179.224C264.364 179.156 264.561 179.32 264.855 179.663Z" fill="#F6A931"/>
<path d="M249.751 179.124C249.875 179.321 249.718 179.555 249.238 179.768C249.185 179.6 249.37 179.405 249.751 179.124Z" fill="#F7BB3B"/>
<path d="M179.662 249.145C179.801 249.328 179.669 249.559 179.219 249.781C179.159 249.626 179.322 249.433 179.662 249.145Z" fill="#F7BB3B"/>
<path d="M179.111 264.18C179.319 264.063 179.558 264.241 179.768 264.749C179.592 264.798 179.391 264.596 179.111 264.18Z" fill="#F7BB3B"/>
<path d="M256.989 193.632C273.626 194.381 290.271 193.71 306.91 193.859C320.053 193.976 320.054 193.883 320.054 206.807C320.054 242.607 319.984 278.408 320.144 314.208C320.164 318.673 319.069 320.23 314.349 320.174C295.537 319.948 276.721 320.142 257.446 320.283C256.985 320.386 256.998 320.141 257.009 320.019C254.835 318.303 254.812 315.923 254.805 313.588C254.703 275.846 254.7 238.104 254.816 200.363C254.823 198.402 254.674 196.317 256.653 194.388C257 194.027 256.987 193.764 256.989 193.632Z" fill="#FFB42E"/>
<path d="M256.536 193.955C257.003 235.677 257.006 277.327 257.015 319.437C237.367 319.972 217.713 319.981 198.061 320.179C194.223 320.218 193.779 318.269 193.789 315.186C193.856 294.528 193.823 273.871 193.823 253.213C193.822 235.221 193.919 217.228 193.75 199.237C193.713 195.194 194.871 193.682 199.099 193.728C218.089 193.935 237.081 193.858 256.536 193.955Z" fill="#FFC738"/>
</g>
<defs>
<clipPath id="clip0_3520_18562">
<rect width="512" height="512" fill="white"/>
</clipPath>
</defs>
</svg>
