<svg width="300" height="232" viewBox="0 0 300 232" fill="none" xmlns="http://www.w3.org/2000/svg">
<path d="M299 184.245C299 209.746 278.235 230.511 252.734 230.511H1V47.2665C1 21.7653 21.7653 1 47.2665 1H299V184.245Z" fill="white"/>
<path d="M217.032 137.249H236.158C236.704 137.249 237.979 137.067 238.526 137.067C242.169 136.339 245.265 133.06 245.265 128.506C245.265 124.135 242.169 120.856 238.526 119.945C237.979 119.763 236.886 119.763 236.158 119.763H217.032V137.249Z" fill="url(#paint0_linear_3521_18597)"/>
<path d="M233.972 16.4829C215.757 16.4829 200.82 31.2372 200.82 49.6345V84.0611H247.633C248.726 84.0611 250.001 84.0612 250.912 84.2433C261.477 84.7898 269.309 90.2543 269.309 99.7262C269.309 107.194 264.027 113.57 254.191 114.845V115.209C264.938 115.938 273.135 121.949 273.135 131.238C273.135 141.257 264.027 147.814 252.005 147.814H200.638V215.21H249.273C267.488 215.21 282.424 200.456 282.424 182.059V16.4829H233.972Z" fill="url(#paint1_linear_3521_18597)"/>
<path d="M242.897 101.912C242.897 97.5404 239.801 94.6259 236.158 94.0795C235.793 94.0795 234.883 93.8973 234.336 93.8973H217.032V109.927H234.336C234.883 109.927 235.976 109.927 236.158 109.745C239.801 109.198 242.897 106.284 242.897 101.912Z" fill="url(#paint2_linear_3521_18597)"/>
<path d="M50.7274 16.4829C32.5122 16.4829 17.5758 31.2372 17.5758 49.6345V131.421C26.8655 135.974 36.5195 138.889 46.1736 138.889C57.6491 138.889 63.8423 131.967 63.8423 122.495V83.879H92.2579V122.313C92.2579 137.249 82.9682 149.454 51.456 149.454C32.33 149.454 17.3936 145.264 17.3936 145.264V215.028H66.0281C84.2432 215.028 99.1797 200.274 99.1797 181.877V16.4829H50.7274Z" fill="url(#paint3_linear_3521_18597)"/>
<path d="M142.35 16.4829C124.134 16.4829 109.198 31.2372 109.198 49.6345V92.9866C117.577 85.8827 132.149 81.3289 155.647 82.4218C168.215 82.9682 181.694 86.4291 181.694 86.4291V100.455C174.955 96.9939 166.94 93.8973 156.557 93.1687C138.707 91.8937 127.96 100.637 127.96 115.938C127.96 131.421 138.707 140.164 156.557 138.707C166.94 137.978 174.955 134.699 181.694 131.421V145.446C181.694 145.446 168.397 148.907 155.647 149.454C132.149 150.546 117.577 145.993 109.198 138.889V215.392H157.833C176.048 215.392 190.984 200.638 190.984 182.241V16.4829H142.35Z" fill="url(#paint4_linear_3521_18597)"/>
<defs>
<linearGradient id="paint0_linear_3521_18597" x1="200.79" y1="128.528" x2="282.644" y2="128.528" gradientUnits="userSpaceOnUse">
<stop stop-color="#007940"/>
<stop offset="0.2285" stop-color="#00873F"/>
<stop offset="0.7433" stop-color="#40A737"/>
<stop offset="1" stop-color="#5CB531"/>
</linearGradient>
<linearGradient id="paint1_linear_3521_18597" x1="200.787" y1="115.767" x2="282.648" y2="115.767" gradientUnits="userSpaceOnUse">
<stop stop-color="#007940"/>
<stop offset="0.2285" stop-color="#00873F"/>
<stop offset="0.7433" stop-color="#40A737"/>
<stop offset="1" stop-color="#5CB531"/>
</linearGradient>
<linearGradient id="paint2_linear_3521_18597" x1="200.788" y1="101.889" x2="282.645" y2="101.889" gradientUnits="userSpaceOnUse">
<stop stop-color="#007940"/>
<stop offset="0.2285" stop-color="#00873F"/>
<stop offset="0.7433" stop-color="#40A737"/>
<stop offset="1" stop-color="#5CB531"/>
</linearGradient>
<linearGradient id="paint3_linear_3521_18597" x1="17.5372" y1="115.767" x2="100.659" y2="115.767" gradientUnits="userSpaceOnUse">
<stop stop-color="#1F286F"/>
<stop offset="0.4751" stop-color="#004E94"/>
<stop offset="0.8261" stop-color="#0066B1"/>
<stop offset="1" stop-color="#006FBC"/>
</linearGradient>
<linearGradient id="paint4_linear_3521_18597" x1="108.727" y1="115.767" x2="189.457" y2="115.767" gradientUnits="userSpaceOnUse">
<stop stop-color="#6C2C2F"/>
<stop offset="0.1735" stop-color="#882730"/>
<stop offset="0.5731" stop-color="#BE1833"/>
<stop offset="0.8585" stop-color="#DC0436"/>
<stop offset="1" stop-color="#E60039"/>
</linearGradient>
</defs>
</svg>
